<svg version="1.2" width="6.61mm" height="6.61mm" viewBox="0 0 661 661" preserveAspectRatio="xMidYMid" fill-rule="evenodd" stroke-width="28.222" stroke-linejoin="round" xmlns="http://www.w3.org/2000/svg"><defs class="ClipPathGroup"><clipPath id="a" clipPathUnits="userSpaceOnUse"><rect width="661" height="661"/></clipPath></defs><g class="SlideGroup"><g class="Slide" clip-path="url(#a)"><g class="Page"><g class="Graphic"><rect class="BoundingBox" fill="none" width="661" height="661"/><path fill="#E3E7F1" d="M515 568H224V198h291v370zm0-423H224c-14 0-27 6-37 16s-15 23-15 37v370c0 14 5 27 15 37s23 15 37 15h291c14 0 27-5 37-15s16-23 16-37V198c0-14-6-27-16-37s-23-16-37-16zM436 40H119c-14 0-28 5-38 15-9 10-15 23-15 37v370h53V92h317V40z"/></g></g></g></g></svg>