<svg version="1.2" width="6.61mm" height="6.61mm" viewBox="0 0 661 661" preserveAspectRatio="xMidYMid" fill-rule="evenodd" stroke-width="28.222" stroke-linejoin="round" xmlns="http://www.w3.org/2000/svg"><defs class="ClipPathGroup"><clipPath id="a" clipPathUnits="userSpaceOnUse"><rect width="661" height="661"/></clipPath></defs><g class="SlideGroup"><g class="Slide" clip-path="url(#a)"><g class="Page"><g class="Graphic"><rect class="BoundingBox" fill="none" width="661" height="661"/><path fill="#E3E7F1" d="M13 145v53h370v-53H13zm0 132v53h370v-53H13zm0 132v53h264v-53H13zm575-158c-4 0-9 2-12 5l-32 32 65 66 33-32c7-7 7-18 0-25l-42-41c-3-3-7-5-12-5zm-63 56L330 501v67h66l195-195-66-66z"/></g></g></g></g></svg>