<svg version="1.2" width="6.61mm" height="6.61mm" viewBox="0 0 661 661" preserveAspectRatio="xMidYMid" fill-rule="evenodd" stroke-width="28.222" stroke-linejoin="round" xmlns="http://www.w3.org/2000/svg"><defs class="ClipPathGroup"><clipPath id="a" clipPathUnits="userSpaceOnUse"><rect width="661" height="661"/></clipPath></defs><g class="SlideGroup"><g class="Slide" clip-path="url(#a)"><g class="Page"><g class="Graphic"><rect class="BoundingBox" fill="none" width="661" height="661"/><path fill="#E3E7F1" d="M293 367c11 11 11 27 0 38-11 10-27 10-38 0-51-52-51-135 0-187l94-93c51-52 135-52 186 0 52 51 52 135 0 186l-39 40c0-22-3-44-11-64l13-13c31-31 31-81 0-112s-81-31-112 0l-93 93c-31 31-31 81 0 112zm74-112c11-10 27-10 38 0 51 52 51 135 0 187l-94 93c-51 52-135 52-186 0-52-51-52-135 0-186l39-40c0 22 3 44 11 65l-13 12c-31 31-31 81 0 112s81 31 112 0l93-93c31-31 31-81 0-112-11-11-11-27 0-38z"/></g></g></g></g></svg>