<svg version="1.2" width="6.61mm" height="6.61mm" viewBox="0 0 661 661" preserveAspectRatio="xMidYMid" fill-rule="evenodd" stroke-width="28.222" stroke-linejoin="round" xmlns="http://www.w3.org/2000/svg"><defs class="ClipPathGroup"><clipPath id="a" clipPathUnits="userSpaceOnUse"><rect width="661" height="661"/></clipPath></defs><g class="SlideGroup"><g class="Slide" clip-path="url(#a)"><g class="Page"><g class="Graphic"><rect class="BoundingBox" fill="none" width="661" height="661"/><path fill="#E3E7F1" d="M488 396c30 0 56 12 75 31l31-31v106H488l47-47c-12-12-28-19-47-19-36 0-66 29-66 66 0 36 30 66 66 66 22 0 41-11 53-27h45c-15 39-53 66-98 66-58 0-105-47-105-105 0-59 47-106 105-106zM383 66l158 158v110c-13-2-26-4-39-4h-14v-79H356V119H172v422h162c5 19 13 37 22 53H172c-29 0-53-24-53-53V119c0-29 24-53 53-53h211z"/></g></g></g></g></svg>