<?xml version="1.0" encoding="UTF-8"?>
<!DOCTYPE svg PUBLIC "-//W3C//DTD SVG 1.1//EN" "http://www.w3.org/Graphics/SVG/1.1/DTD/svg11.dtd">
<svg version="1.2" width="21.43mm" height="24.08mm" viewBox="0 0 2143 2408" preserveAspectRatio="xMidYMid" fill-rule="evenodd" stroke-width="28.222" stroke-linejoin="round" xmlns="http://www.w3.org/2000/svg" xmlns:ooo="http://xml.openoffice.org/svg/export" xmlns:xlink="http://www.w3.org/1999/xlink" xmlns:presentation="http://sun.com/xmlns/staroffice/presentation" xmlns:smil="http://www.w3.org/2001/SMIL20/" xmlns:anim="urn:oasis:names:tc:opendocument:xmlns:animation:1.0" xml:space="preserve">
 <defs class="ClipPathGroup">
  <clipPath id="presentation_clip_path" clipPathUnits="userSpaceOnUse">
   <rect x="0" y="0" width="2143" height="2408"/>
  </clipPath>
  <clipPath id="presentation_clip_path_shrink" clipPathUnits="userSpaceOnUse">
   <rect x="2" y="2" width="2139" height="2404"/>
  </clipPath>
 </defs>
 <defs class="TextShapeIndex">
  <g ooo:slide="id1" ooo:id-list="id3"/>
 </defs>
 <defs class="EmbeddedBulletChars">
  <g id="bullet-char-template-57356" transform="scale(0.00048828125,-0.00048828125)">
   <path d="M 580,1141 L 1163,571 580,0 -4,571 580,1141 Z"/>
  </g>
  <g id="bullet-char-template-57354" transform="scale(0.00048828125,-0.00048828125)">
   <path d="M 8,1128 L 1137,1128 1137,0 8,0 8,1128 Z"/>
  </g>
  <g id="bullet-char-template-10146" transform="scale(0.00048828125,-0.00048828125)">
   <path d="M 174,0 L 602,739 174,1481 1456,739 174,0 Z M 1358,739 L 309,1346 659,739 1358,739 Z"/>
  </g>
  <g id="bullet-char-template-10132" transform="scale(0.00048828125,-0.00048828125)">
   <path d="M 2015,739 L 1276,0 717,0 1260,543 174,543 174,936 1260,936 717,1481 1274,1481 2015,739 Z"/>
  </g>
  <g id="bullet-char-template-10007" transform="scale(0.00048828125,-0.00048828125)">
   <path d="M 0,-2 C -7,14 -16,27 -25,37 L 356,567 C 262,823 215,952 215,954 215,979 228,992 255,992 264,992 276,990 289,987 310,991 331,999 354,1012 L 381,999 492,748 772,1049 836,1024 860,1049 C 881,1039 901,1025 922,1006 886,937 835,863 770,784 769,783 710,716 594,584 L 774,223 C 774,196 753,168 711,139 L 727,119 C 717,90 699,76 672,76 641,76 570,178 457,381 L 164,-76 C 142,-110 111,-127 72,-127 30,-127 9,-110 8,-76 1,-67 -2,-52 -2,-32 -2,-23 -1,-13 0,-2 Z"/>
  </g>
  <g id="bullet-char-template-10004" transform="scale(0.00048828125,-0.00048828125)">
   <path d="M 285,-33 C 182,-33 111,30 74,156 52,228 41,333 41,471 41,549 55,616 82,672 116,743 169,778 240,778 293,778 328,747 346,684 L 369,508 C 377,444 397,411 428,410 L 1163,1116 C 1174,1127 1196,1133 1229,1133 1271,1133 1292,1118 1292,1087 L 1292,965 C 1292,929 1282,901 1262,881 L 442,47 C 390,-6 338,-33 285,-33 Z"/>
  </g>
  <g id="bullet-char-template-9679" transform="scale(0.00048828125,-0.00048828125)">
   <path d="M 813,0 C 632,0 489,54 383,161 276,268 223,411 223,592 223,773 276,916 383,1023 489,1130 632,1184 813,1184 992,1184 1136,1130 1245,1023 1353,916 1407,772 1407,592 1407,412 1353,268 1245,161 1136,54 992,0 813,0 Z"/>
  </g>
  <g id="bullet-char-template-8226" transform="scale(0.00048828125,-0.00048828125)">
   <path d="M 346,457 C 273,457 209,483 155,535 101,586 74,649 74,723 74,796 101,859 155,911 209,963 273,989 346,989 419,989 480,963 531,910 582,859 608,796 608,723 608,648 583,586 532,535 482,483 420,457 346,457 Z"/>
  </g>
  <g id="bullet-char-template-8211" transform="scale(0.00048828125,-0.00048828125)">
   <path d="M -4,459 L 1135,459 1135,606 -4,606 -4,459 Z"/>
  </g>
  <g id="bullet-char-template-61548" transform="scale(0.00048828125,-0.00048828125)">
   <path d="M 173,740 C 173,903 231,1043 346,1159 462,1274 601,1332 765,1332 928,1332 1067,1274 1183,1159 1299,1043 1357,903 1357,740 1357,577 1299,437 1183,322 1067,206 928,148 765,148 601,148 462,206 346,322 231,437 173,577 173,740 Z"/>
  </g>
 </defs>
 <defs class="TextEmbeddedBitmaps"/>
 <g>
  <g id="id2" class="Master_Slide">
   <g id="bg-id2" class="Background"/>
   <g id="bo-id2" class="BackgroundObjects"/>
  </g>
 </g>
 <g class="SlideGroup">
  <g>
   <g id="container-id1">
    <g id="id1" class="Slide" clip-path="url(#presentation_clip_path)">
     <g class="Page">
      <g class="Graphic">
       <g id="id3">
        <rect class="BoundingBox" stroke="none" fill="none" x="0" y="0" width="2143" height="2408"/>
        <path fill="rgb(227,231,241)" stroke="none" d="M 278,983 L 454,983 454,1159 278,1159 278,983 278,983 Z M 983,454 L 1159,454 1159,807 983,807 983,454 983,454 Z M 807,983 L 1159,983 1159,1336 983,1336 983,1159 807,1159 807,983 807,983 Z M 1335,983 L 1512,983 1512,1159 1688,1159 1688,983 1864,983 1864,1159 1688,1159 1688,1336 1864,1336 1864,1688 1688,1688 1688,1865 1512,1865 1512,1688 1159,1688 1159,1865 983,1865 983,1512 1335,1512 1335,1336 1512,1336 1512,1159 1335,1159 1335,983 1335,983 Z M 1688,1688 L 1688,1336 1512,1336 1512,1688 1688,1688 1688,1688 Z M 1335,278 L 1864,278 1864,807 1335,807 1335,278 1335,278 Z M 1512,454 L 1512,630 1688,630 1688,454 1512,454 1512,454 Z M 278,278 L 807,278 807,807 278,807 278,278 278,278 Z M 454,454 L 454,630 630,630 630,454 454,454 454,454 Z M 278,1336 L 807,1336 807,1865 278,1865 278,1336 278,1336 Z M 454,1512 L 454,1688 630,1688 630,1512 454,1512 454,1512 Z"/>
        <path fill="rgb(227,231,241)" stroke="none" d="M 648,1854 C 648,1626 832,1442 1060,1442 L 1082,1442 C 1310,1442 1494,1626 1494,1854 1494,2082 1310,2266 1082,2266 L 1060,2266 C 832,2266 648,2082 648,1854 L 648,1854 Z"/>
        <path fill="rgb(255,255,255)" stroke="none" d="M 1071,2137 C 1100,2137 1124,2114 1124,2085 L 1124,1623 C 1124,1594 1100,1570 1071,1570 1042,1570 1018,1594 1018,1623 L 1018,2085 C 1018,2114 1042,2137 1071,2137 Z"/>
        <path fill="rgb(255,255,255)" stroke="none" d="M 1071,1905 L 1310,1905 C 1339,1905 1362,1882 1362,1854 1362,1825 1339,1802 1310,1802 L 832,1802 C 803,1802 780,1825 780,1854 780,1882 803,1905 832,1905 L 1071,1905 Z"/>
        <path fill="rgb(255,255,255)" stroke="none" d="M 1082,1547 C 1251,1547 1388,1685 1388,1854 1388,2023 1251,2160 1082,2160 L 1060,2160 C 891,2160 754,2023 754,1854 754,1685 891,1547 1060,1547 L 1082,1547 Z M 1060,1336 C 774,1336 542,1568 542,1854 542,2140 774,2372 1060,2372 L 1082,2372 C 1368,2372 1600,2140 1600,1854 1600,1568 1368,1336 1082,1336 L 1060,1336 Z"/>
       </g>
      </g>
     </g>
    </g>
   </g>
  </g>
 </g>
</svg>