<svg version="1.2" width="4.5mm" height="4.5mm" viewBox="0 0 450 450" preserveAspectRatio="xMidYMid" fill-rule="evenodd" stroke-width="28.222" stroke-linejoin="round" xmlns="http://www.w3.org/2000/svg"><defs class="ClipPathGroup"><clipPath id="a" clipPathUnits="userSpaceOnUse"><rect width="450" height="450"/></clipPath></defs><g class="SlideGroup"><g class="Slide" clip-path="url(#a)"><g class="Page"><g class="Graphic"><rect class="BoundingBox" fill="none" width="450" height="450"/><path fill="#E3E7F1" d="M330 251h-79v79h-53v-79h-79v-53h79v-79h53v79h79v53zM225 13c-28 0-56 6-81 16-26 11-49 26-69 46-40 40-62 93-62 150 0 56 22 109 62 149 20 20 43 35 69 46 25 10 53 16 81 16 56 0 109-22 149-62s62-93 62-149c0-28-6-56-16-81-11-26-26-49-46-69s-43-35-69-46c-25-10-53-16-80-16z"/></g></g></g></g></svg>