<svg version="1.2" width="80.995" height="80.995" viewBox="0 0 2143 2143" preserveAspectRatio="xMidYMid" fill-rule="evenodd" stroke-width="28.222" stroke-linejoin="round" xmlns="http://www.w3.org/2000/svg"><defs class="ClipPathGroup"><clipPath id="a" clipPathUnits="userSpaceOnUse"><rect width="2143" height="2143"/></clipPath></defs><g class="SlideGroup"><g class="Slide" clip-path="url(#a)"><g class="Page"><g class="Graphic"><rect class="BoundingBox" fill="none" width="2143" height="2143"/><path fill="#BBDDFC" d="M2129 1071c0 195-45 360-142 529s-218 290-387 387-334 142-529 142-360-45-529-142-290-218-387-387-142-334-142-529 45-360 142-529 218-290 387-387S876 13 1071 13s360 45 529 142 290 218 387 387 142 334 142 529z"/><path fill="#FFF" d="M1071 575c66 0 129 26 175 73 47 46 73 109 73 175s-26 129-73 175c-46 47-109 73-175 73s-129-26-175-73c-47-46-73-109-73-175s26-129 73-175c46-47 109-73 175-73zm0 620c274 0 496 111 496 248v124H575v-124c0-137 222-248 496-248z"/><defs><mask id="c"><defs><linearGradient id="b" x1="1071" y1="13" x2="1071" y2="2129" gradientUnits="userSpaceOnUse"><stop offset=".5" stop-color="#b3b3b3"/><stop offset=".5" stop-color="#b3b3b3"/><stop offset="1" stop-color="#b3b3b3"/><stop offset="1" stop-color="#b3b3b3"/></linearGradient></defs><path d="M13 13h2116v2116H13V13z" fill="url(#b)"/></mask></defs><g mask="url(#c)"><path fill="none" stroke="#BBDDFC" stroke-width="53" stroke-linejoin="miter" d="M2102 1071c0 190-43 351-138 516-95 164-213 282-377 377-165 95-326 138-516 138s-351-43-516-138c-164-95-282-213-377-377-95-165-138-326-138-516s43-351 138-516c95-164 213-282 377-377C720 83 881 40 1071 40s351 43 516 138c164 95 282 213 377 377 95 165 138 326 138 516h0z"/></g></g></g></g></g></svg>