<svg version="1.2" width="4.5mm" height="4.5mm" viewBox="0 0 450 450" preserveAspectRatio="xMidYMid" fill-rule="evenodd" stroke-width="28.222" stroke-linejoin="round" xmlns="http://www.w3.org/2000/svg"><defs class="ClipPathGroup"><clipPath id="a" clipPathUnits="userSpaceOnUse"><rect width="450" height="450"/></clipPath></defs><g class="SlideGroup"><g class="Slide" clip-path="url(#a)"><g class="Page"><g class="Graphic"><rect class="BoundingBox" fill="none" width="450" height="450"/><path fill="#9BA6BC" d="M304 225c0 14-4 26-11 39s-16 22-29 29-25 11-39 11c-15 0-27-4-40-11s-22-16-29-29-11-25-11-39c0-15 4-27 11-40s16-22 29-29 25-11 39-11c15 0 27 4 40 11s22 16 29 29 11 25 11 39v1z"/></g></g></g></g></svg>