<svg version="1.2" width="16.4mm" height="72" viewBox="0 0 1640 1905" preserveAspectRatio="xMidYMid" fill-rule="evenodd" stroke-width="28.222" stroke-linejoin="round" xmlns="http://www.w3.org/2000/svg"><defs class="ClipPathGroup"><clipPath id="a" clipPathUnits="userSpaceOnUse"><rect width="1640" height="1905"/></clipPath></defs><g class="SlideGroup"><g class="Slide" clip-path="url(#a)"><g class="Page"><g class="Graphic"><rect class="BoundingBox" fill="none" width="1640" height="1905"/><path fill="#4E94CA" d="M198 31c-98 0-176 78-176 176v1411c0 46 19 91 52 124s78 52 124 52h353v-169l184-184H198v-176h713l176-176H198V912h1066l168-168V560L903 31H198zm617 132l485 485H815V163zm630 837c-13 0-25 5-35 15l-90 89 184 184 90-89c19-20 19-51 0-70l-115-114c-9-10-22-15-34-15zm-177 157l-541 542v183h183l542-542-184-183z"/></g></g></g></g></svg>