<svg version="1.2" width="16.4mm" height="69.997" viewBox="0 0 1640 1852" preserveAspectRatio="xMidYMid" fill-rule="evenodd" stroke-width="28.222" stroke-linejoin="round" xmlns="http://www.w3.org/2000/svg"><defs class="ClipPathGroup"><clipPath id="a" clipPathUnits="userSpaceOnUse"><rect width="1640" height="1852"/></clipPath></defs><g class="SlideGroup"><g class="Slide" clip-path="url(#a)"><g class="Page"><g class="Graphic"><rect class="BoundingBox" fill="none" width="1640" height="1852"/><path fill="#4E94CA" d="M1256 1133c97 0 186 39 249 103l103-103v352h-352l156-156c-40-39-96-64-156-64-122 0-221 99-221 220 0 122 99 221 221 221 72 0 135-35 176-89h151c-52 130-179 221-327 221-195 0-353-158-353-353s158-352 353-352zM815 648h485L815 163v485zM198 31h705l529 529v367c-44-9-88-15-132-15-317 0-573 257-573 573 0 114 33 221 88 309H198c-98 0-176-80-176-177V207c0-98 78-176 176-176z"/></g></g></g></g></svg>