<svg version="1.2" width="3.18mm" height="6.09mm" viewBox="0 0 318 609" preserveAspectRatio="xMidYMid" fill-rule="evenodd" stroke-width="28.222" stroke-linejoin="round" xmlns="http://www.w3.org/2000/svg"><defs class="ClipPathGroup"><clipPath id="a" clipPathUnits="userSpaceOnUse"><rect width="318" height="609"/></clipPath></defs><g class="SlideGroup"><g class="Slide" clip-path="url(#a)"><g class="Page"><g class="Graphic"><rect class="BoundingBox" fill="none" width="318" height="609"/><path fill="#BBDDFC" d="M264 145v304c0 28-11 55-31 75s-46 31-74 31c-29 0-55-11-75-31s-31-47-31-75V119c0-18 7-34 19-47 13-12 29-19 47-19 17 0 34 7 47 19 12 13 19 29 19 47v278c0 7-3 13-8 18s-11 8-18 8c-8 0-14-3-19-8s-8-11-8-18V145H92v252c0 17 7 34 20 46 12 13 29 20 47 20 17 0 34-7 46-20 13-12 20-29 20-46V119c0-28-12-55-31-75-20-20-47-31-75-31S64 24 44 44s-31 47-31 75v330c0 39 16 76 43 103s64 43 103 43c38 0 75-16 102-43s43-64 43-103V145h-40z"/></g></g></g></g></svg>