<svg version="1.2" width="82.998" height="91.994" viewBox="0 0 2196 2434" preserveAspectRatio="xMidYMid" fill-rule="evenodd" stroke-width="28.222" stroke-linejoin="round" xmlns="http://www.w3.org/2000/svg"><defs class="ClipPathGroup"><clipPath id="a" clipPathUnits="userSpaceOnUse"><rect width="2196" height="2434"/></clipPath></defs><g class="SlideGroup"><g class="Slide" clip-path="url(#a)"><g class="Page"><g class="Graphic"><rect class="BoundingBox" fill="none" width="2196" height="2434"/><path fill="#BBDDFC" d="M2001 781c0 124-101 226-226 226s-226-102-226-226c0 124-101 226-226 226-124 0-226-102-226-226 0 124-101 226-225 226-125 0-226-102-226-226 0 124-101 226-226 226S194 905 194 781l126-489s26-98 118-98h1319c92 0 118 98 118 98l126 489zm-90 335v704c0 100-82 181-181 181H465c-99 0-181-81-181-181v-704c42 17 88 27 136 27 86 0 164-30 226-80 62 50 141 80 226 80s164-30 225-80c63 50 141 80 226 80 86 0 165-30 226-80 62 50 141 80 226 80 48 0 94-10 136-27z"/><path fill="#BBDDFC" d="M674 1890c0-228 185-413 413-413h21c228 0 413 185 413 413 0 227-185 412-413 412h-21c-228 0-413-185-413-412z"/><path fill="#FFF" d="M1098 2173c29 0 52-24 52-53v-461c0-29-23-53-52-53-30 0-53 24-53 53v461c0 29 23 53 53 53z"/><path fill="#FFF" d="M1098 1941h239c28 0 51-23 51-51 0-29-23-52-51-52H858c-28 0-51 23-51 52 0 28 23 51 51 51h240z"/><path fill="#FFF" d="M1108 1583c170 0 307 137 307 307 0 169-137 306-307 306h-21c-170 0-307-137-307-306 0-170 137-307 307-307h21zm-21-212c-286 0-518 232-518 519 0 286 232 518 518 518h21c286 0 518-232 518-518 0-287-232-519-518-519h-21z"/></g></g></g></g></svg>