<svg version="1.2" width="35.45mm" height="80.995" viewBox="0 0 3545 2143" preserveAspectRatio="xMidYMid" fill-rule="evenodd" stroke-width="28.222" stroke-linejoin="round" xmlns="http://www.w3.org/2000/svg"><defs class="ClipPathGroup"><clipPath id="a" clipPathUnits="userSpaceOnUse"><rect width="3545" height="2143"/></clipPath></defs><g class="SlideGroup"><g class="Slide" clip-path="url(#a)"><g class="Page"><g class="Graphic"><rect class="BoundingBox" fill="none" width="3545" height="2143"/><path fill="#F0F2F7" d="M1772 2129h1547c117 0 212-95 212-212V225c0-117-95-212-212-212H225C108 13 13 108 13 225v1692c0 117 95 212 212 212h1547z"/><path fill="#FFF" d="M2230 909c0 63-51 116-114 116-64 0-115-53-115-116 0 63-51 116-114 116-64 0-115-53-115-116 0 63-51 116-115 116-63 0-114-53-114-116 0 63-51 116-115 116-63 0-114-53-114-116l64-252s13-50 60-50h668c47 0 60 50 60 50l64 252zm-46 171v362c0 51-41 93-91 93h-642c-50 0-91-42-91-93v-362c21 9 44 14 68 14 44 0 84-15 115-41 32 26 71 41 114 41 44 0 84-15 115-41 32 26 71 41 115 41 43 0 83-15 114-41 31 26 71 41 115 41 24 0 47-5 68-14z"/></g></g></g></g></svg>