<svg version="1.2" width="5.56mm" height="5.56mm" viewBox="0 0 556 556" preserveAspectRatio="xMidYMid" fill-rule="evenodd" stroke-width="28.222" stroke-linejoin="round" xmlns="http://www.w3.org/2000/svg"><defs class="ClipPathGroup"><clipPath id="a" clipPathUnits="userSpaceOnUse"><rect width="556" height="556"/></clipPath></defs><g class="SlideGroup"><g class="Slide" clip-path="url(#a)"><g class="Page"><g class="Graphic"><rect class="BoundingBox" fill="none" width="556" height="556"/><path fill="#9B9BBC" d="M476 388V189H167v199h309zm0-309c11 0 23 5 31 13s13 20 13 31v265c0 11-5 23-13 31s-20 13-31 13H167c-24 0-44-20-44-44V123c0-11 5-23 13-31s20-13 31-13h22V35h44v44h177V35h44v44h22zm-77 178l-97 98-60-59 24-24 36 36 74-75 23 24zM79 476h309v44H79c-24 0-44-20-44-44V211h44v265z"/></g></g></g></g></svg>