<svg version="1.2" width="5.56mm" height="5.56mm" viewBox="0 0 556 556" preserveAspectRatio="xMidYMid" fill-rule="evenodd" stroke-width="28.222" stroke-linejoin="round" xmlns="http://www.w3.org/2000/svg"><defs class="ClipPathGroup"><clipPath id="a" clipPathUnits="userSpaceOnUse"><rect width="556" height="556"/></clipPath></defs><g class="SlideGroup"><g class="Slide" clip-path="url(#a)"><g class="Page"><g class="Graphic"><rect class="BoundingBox" fill="none" width="556" height="556"/><path fill="#BBDDFC" d="M410 278V40c0-7-3-14-8-19s-12-8-19-8H40c-7 0-14 3-19 8s-8 12-8 19v370l106-106h264c7 0 14-3 19-8s8-11 8-18zm105-159h-52v238H119v53c0 7 3 13 8 18s11 8 18 8h291l106 106V145c0-7-3-13-8-18s-12-8-19-8z"/></g></g></g></g></svg>