<svg version="1.2" width="5.56mm" height="9.79mm" viewBox="0 0 556 979" preserveAspectRatio="xMidYMid" fill-rule="evenodd" stroke-width="28.222" stroke-linejoin="round" xmlns="http://www.w3.org/2000/svg"><defs class="ClipPathGroup"><clipPath id="a" clipPathUnits="userSpaceOnUse"><rect width="556" height="979"/></clipPath></defs><g class="SlideGroup"><g class="Slide" clip-path="url(#a)"><g class="Page"><g class="Graphic"><rect class="BoundingBox" fill="none" width="556" height="979"/><path fill="#FFF" d="M66 172c0-59 47-106 106-106h211c59 0 106 47 106 106v634c0 59-47 106-106 106H172c-59 0-106-47-106-106V172z"/><path fill="#9BA6BC" d="M198 251h53v53h-53v-53zm106 0h53v53h-53v-53zM198 357h53v53h-53v-53zm106 0h53v53h-53v-53zM198 463h53v52h-53v-52zm106 0h53v52h-53v-52zM198 568h53v53h-53v-53zm106 0h53v53h-53v-53zM198 674h53v53h-53v-53zm106 0h53v53h-53v-53z"/><path fill="#E3E7F1" d="M383 119c29 0 53 24 53 53v634c0 29-24 53-53 53H172c-29 0-53-24-53-53V172c0-29 24-53 53-53h211zM172 13C84 13 13 84 13 172v634c0 88 71 159 159 159h211c88 0 159-71 159-159V172c0-88-71-159-159-159H172z"/></g></g></g></g></svg>