<svg version="1.2" width="4.5mm" height="4.5mm" viewBox="0 0 450 450" preserveAspectRatio="xMidYMid" fill-rule="evenodd" stroke-width="28.222" stroke-linejoin="round" xmlns="http://www.w3.org/2000/svg"><defs class="ClipPathGroup"><clipPath id="a" clipPathUnits="userSpaceOnUse"><rect width="450" height="450"/></clipPath></defs><g class="SlideGroup"><g class="Slide" clip-path="url(#a)"><g class="Page"><g class="Graphic"><rect class="BoundingBox" fill="none" width="450" height="450"/><path fill="#3783BD" d="M350 376H166V140h184v236zm0-269H166c-9 0-17 3-23 10-7 6-10 15-10 23v236c0 9 3 17 10 24 6 6 14 9 23 9h184c8 0 17-3 23-9 6-7 10-15 10-24V140c0-8-4-17-10-23-6-7-15-10-23-10zm-50-67H99c-8 0-17 3-23 9-6 7-10 15-10 24v236h33V73h201V40z"/></g></g></g></g></svg>