<svg version="1.2" width="6.61mm" height="6.61mm" viewBox="0 0 661 661" preserveAspectRatio="xMidYMid" fill-rule="evenodd" stroke-width="28.222" stroke-linejoin="round" xmlns="http://www.w3.org/2000/svg"><defs class="ClipPathGroup"><clipPath id="a" clipPathUnits="userSpaceOnUse"><rect width="661" height="661"/></clipPath></defs><g class="SlideGroup"><g class="Slide" clip-path="url(#a)"><g class="Page"><g class="Graphic"><rect class="BoundingBox" fill="none" width="661" height="661"/><path fill="#9BA6BC" d="M330 267c-17 0-34 6-46 18s-19 28-19 45 7 33 19 45 29 18 46 18 34-6 46-18 19-28 19-45-7-33-19-45-29-18-46-18zm0 169c-29 0-56-12-76-31-21-20-32-47-32-75s11-55 32-75c20-19 47-31 76-31s56 12 76 31c21 20 32 47 32 75s-11 55-32 75c-20 19-47 31-76 31zm0-264c-108 0-200 65-238 158 38 93 130 158 238 158s200-65 238-158c-38-93-130-158-238-158z"/></g></g></g></g></svg>