<svg version="1.2" width="6.61mm" height="6.61mm" viewBox="0 0 661 661" preserveAspectRatio="xMidYMid" fill-rule="evenodd" stroke-width="28.222" stroke-linejoin="round" xmlns="http://www.w3.org/2000/svg"><defs class="ClipPathGroup"><clipPath id="a" clipPathUnits="userSpaceOnUse"><rect width="661" height="661"/></clipPath></defs><g class="SlideGroup"><g class="Slide" clip-path="url(#a)"><g class="Page"><g class="Graphic"><rect class="BoundingBox" fill="none" width="661" height="661"/><path fill="#9BA6BC" d="M326 262l69 61v-3c0-15-7-30-19-41s-29-17-46-17h-4zm-93 15l34 31c-1 4-2 8-2 12 0 16 7 31 19 42 12 10 29 17 46 17 5 0 10-1 14-2l34 30c-15 7-31 11-48 11-29 0-56-11-76-29-21-18-32-43-32-69 0-15 4-29 11-43zM114 170l49 44 10 9c-36 25-64 58-81 97 38 86 130 146 238 146 33 0 65-6 95-16l9 8 63 57 27-25-383-345-27 25zm216 53c29 0 56 10 76 28 21 19 32 43 32 69 0 13-3 25-8 36l64 57c32-25 58-57 74-93-38-85-130-146-238-146-30 0-59 5-86 14l46 42c13-4 26-7 40-7z"/></g></g></g></g></svg>