<svg version="1.2" width="6.61mm" height="6.61mm" viewBox="0 0 661 661" preserveAspectRatio="xMidYMid" fill-rule="evenodd" stroke-width="28.222" stroke-linejoin="round" xmlns="http://www.w3.org/2000/svg"><defs class="ClipPathGroup"><clipPath id="a" clipPathUnits="userSpaceOnUse"><rect width="661" height="661"/></clipPath></defs><g class="SlideGroup"><g class="Slide" clip-path="url(#a)"><g class="Page"><g class="Graphic"><rect class="BoundingBox" fill="none" width="661" height="661"/><path fill="#9BA6BC" d="M264 92c46 0 89 18 121 51 33 32 51 75 51 121 0 43-16 82-42 112l8 7h20l132 132-39 39-132-132v-20l-7-8c-30 26-69 42-112 42-46 0-89-18-121-51-33-32-51-75-51-121s18-89 51-121c32-33 75-51 121-51zm0 53c-66 0-119 53-119 119s53 119 119 119 119-53 119-119-53-119-119-119z"/></g></g></g></g></svg>