<svg version="1.2" width="6.61mm" height="6.61mm" viewBox="0 0 661 661" preserveAspectRatio="xMidYMid" fill-rule="evenodd" stroke-width="28.222" stroke-linejoin="round" xmlns="http://www.w3.org/2000/svg"><defs class="ClipPathGroup"><clipPath id="a" clipPathUnits="userSpaceOnUse"><rect width="661" height="661"/></clipPath></defs><g class="SlideGroup"><g class="Slide" clip-path="url(#a)"><g class="Page"><g class="Graphic"><rect class="BoundingBox" fill="none" width="661" height="661"/><path fill="#4E94CA" d="M462 330V92c0-7-3-13-8-18s-11-8-18-8H92c-7 0-13 3-18 8s-8 11-8 18v370l106-106h264c7 0 13-2 18-7s8-12 8-19zm106-158h-53v237H172v53c0 7 2 14 7 19s12 7 19 7h290l106 106V198c0-7-3-14-8-19s-11-7-18-7z"/></g></g></g></g></svg>