<svg version="1.2" width="6.61mm" height="6.61mm" viewBox="0 0 661 661" preserveAspectRatio="xMidYMid" fill-rule="evenodd" stroke-width="28.222" stroke-linejoin="round" xmlns="http://www.w3.org/2000/svg"><defs class="ClipPathGroup"><clipPath id="a" clipPathUnits="userSpaceOnUse"><rect width="661" height="661"/></clipPath></defs><g class="SlideGroup"><g class="Slide" clip-path="url(#a)"><g class="Page"><g class="Graphic"><rect class="BoundingBox" fill="none" width="661" height="661"/><path fill="#4E94CA" d="M594 238c0 36-30 66-66 66s-66-30-66-66c0 36-30 66-66 66s-66-30-66-66c0 36-30 66-66 66s-66-30-66-66c0 36-30 66-66 66s-66-30-66-66l37-143s7-29 34-29h386c27 0 34 29 34 29l37 143zm-26 97v206c0 29-24 53-53 53H145c-29 0-53-24-53-53V335c13 5 26 8 40 8 25 0 48-9 66-23 18 14 41 23 66 23s48-9 66-23c18 14 41 23 66 23s48-9 66-23c18 14 41 23 66 23 14 0 27-3 40-8z"/></g></g></g></g></svg>