<svg version="1.2" width="53.71mm" height="48.983" viewBox="0 0 5371 1296" preserveAspectRatio="xMidYMid" fill-rule="evenodd" stroke-width="28.222" stroke-linejoin="round" xmlns="http://www.w3.org/2000/svg"><defs class="ClipPathGroup"><clipPath id="a" clipPathUnits="userSpaceOnUse"><rect width="5371" height="1296"/></clipPath></defs><g class="SlideGroup"><g class="Slide" clip-path="url(#a)"><g class="Page"><g class="Graphic"><rect class="BoundingBox" fill="none" width="5371" height="1296"/><path fill="#3187D6" d="M2028 226l-361 358s-307-341-485-400c-138-46-273-18-321 71-73 137 60 175 216 219 164 46 352 99 358 280 5 157-70 432-408 514h916c47 0 85-38 85-85V226zM13 1047l348-348c11 10 23 22 37 35 122 118 344 333 513 300 236-46 227-201 164-253-13-11-51-20-100-33-194-48-573-142-364-553 49-86 112-144 171-182H98c-47 0-85 38-85 85v949zm2548-410c-43 0-80-10-110-30s-52-47-64-81l64-38c18 51 56 76 112 76 28 0 49-5 63-16s21-25 21-43c0-19-7-32-22-42-16-10-42-21-80-32-22-7-39-13-53-18-13-6-27-14-42-24s-26-23-33-38-11-32-11-52c0-41 14-72 43-95 28-24 62-36 102-36 36 0 68 9 95 27 27 17 48 42 62 73l-62 36c-19-42-51-64-95-64-21 0-39 6-51 16-13 10-20 23-20 41 0 16 7 30 20 40 13 9 37 19 71 30 17 5 30 10 37 13 9 2 20 7 34 13 15 6 25 12 33 18 7 6 15 13 23 22 9 9 15 20 18 31 3 12 5 25 5 40 0 41-15 73-44 97-30 24-68 36-116 36zm572-340c36 0 66 12 88 36 22 23 34 55 34 95v200h-70V433c0-23-6-40-17-52s-26-19-46-19c-21 0-38 7-51 22-12 14-19 35-19 64v180h-69V433c0-23-6-40-16-52-11-12-26-19-45-19-21 0-38 8-51 22-14 15-20 36-20 64v180h-70V306h70v38c20-31 51-47 92-47s72 17 91 51c22-34 55-51 99-51zm451 9h70v322h-70v-46c-26 36-64 55-113 55-44 0-82-17-113-49-31-34-47-74-47-121 0-48 16-88 47-121 31-32 69-49 113-49 49 0 87 18 113 54v-45zm-174 235c19 19 43 29 72 29 30 0 54-10 73-29 19-20 29-44 29-74s-10-54-29-74c-19-19-43-29-73-29-29 0-53 10-72 29-20 20-29 44-29 74s9 54 29 74zm394-181c18-40 51-60 100-60v75c-27-1-50 5-70 20-20 14-30 38-30 71v162h-69V306h69v54zm339 13h-80v155c0 13 3 23 9 29 6 5 15 8 26 9 12 1 27 1 45 0v62c-53 7-92 2-115-13-23-16-35-45-35-87V373h-59v-67h59v-70l70-21v91h80v67zM2675 892h-190v126h184v71h-184v184h-74V821h264v71zm120 249c5 24 17 43 35 57 19 13 41 19 68 19 37 0 65-13 83-40l57 34c-31 47-78 70-141 70-52 0-94-16-127-48-32-32-48-73-48-122 0-48 16-88 48-120 32-33 72-49 122-49 47 0 86 16 116 49 31 33 46 74 46 121 0 7-1 17-3 29h-256zm-1-57h190c-5-26-16-46-33-59-17-14-37-20-59-20-26 0-48 7-65 21s-28 34-33 58zm374 57c5 24 17 43 35 57 19 13 41 19 68 19 37 0 65-13 83-40l57 34c-31 47-78 70-141 70-52 0-94-16-126-48-33-32-49-73-49-122 0-48 16-88 48-120 32-33 72-49 122-49 47 0 86 16 116 49 31 33 46 74 46 121 0 7-1 17-3 29h-256zm-1-57h190c-5-26-16-46-33-59-17-14-37-20-59-20-26 0-48 7-65 21s-28 34-33 58zm574-263h70v452h-70v-47c-26 37-63 55-112 55-45 0-82-16-114-49-31-33-47-73-47-121 0-47 16-88 47-120 32-33 69-49 114-49 49 0 86 18 112 54V821zm-174 364c19 20 43 30 73 30 29 0 53-10 72-30 20-19 29-44 29-74 0-29-9-54-29-73-19-20-43-30-72-30-30 0-54 10-73 30-20 19-29 44-29 73 0 30 9 55 29 74zm507-243c45 0 82 16 114 49 31 32 47 73 47 120 0 48-16 88-47 121-32 33-69 49-114 49-49 0-86-18-112-55v47h-70V821h70v175c26-36 63-54 112-54zm-83 243c19 20 43 30 72 30 30 0 54-10 73-30 20-19 29-44 29-74 0-29-9-54-29-73-19-20-43-30-73-30-29 0-53 10-72 30-20 19-29 44-29 73 0 30 9 55 29 74zm562-235h69v323h-69v-47c-26 37-64 55-113 55-44 0-82-16-113-49-32-33-47-73-47-121 0-47 15-88 47-120 31-33 69-49 113-49 49 0 87 18 113 54v-46zm-175 235c20 20 44 30 73 30s54-10 73-30c19-19 29-44 29-74 0-29-10-54-29-73-19-20-44-30-73-30s-53 10-73 30c-19 19-29 44-29 73 0 30 10 55 29 74zm478 96c-49 0-90-16-122-49s-48-73-48-121 16-88 48-120c32-33 73-49 122-49 31 0 59 7 85 22s45 35 58 61l-60 35c-7-16-18-28-33-36-15-10-32-14-51-14-28 0-52 10-72 29-18 19-28 43-28 72s10 53 28 73c20 19 44 29 72 29 19 0 36-5 51-14s27-21 35-36l60 34c-14 26-34 46-60 61s-54 23-85 23zm480-8h-84l-132-149v149h-69V821h69v272l125-143h85l-141 158 147 165z"/></g></g></g></g></svg>