<svg version="1.2" width="41.008" height="41.008" viewBox="0 0 1085 1085" preserveAspectRatio="xMidYMid" fill-rule="evenodd" stroke-width="28.222" stroke-linejoin="round" xmlns="http://www.w3.org/2000/svg"><defs class="ClipPathGroup"><clipPath id="a" clipPathUnits="userSpaceOnUse"><rect width="1085" height="1085"/></clipPath></defs><g class="SlideGroup"><g class="Slide" clip-path="url(#a)"><g class="Page"><g class="Graphic"><rect class="BoundingBox" fill="none" width="1085" height="1085"/><path fill="#FFF" d="M542 101c35 0 69 14 93 39 25 25 39 58 39 94v264c0 35-14 69-39 93-24 25-58 39-93 39s-69-14-93-39c-25-24-39-58-39-93V234c0-36 14-69 39-94 24-25 58-39 93-39zm308 397c0 155-115 284-264 305v136h-88V803c-149-21-264-150-264-305h88c0 58 23 114 64 156 42 41 98 64 156 64s114-23 156-64c41-42 64-98 64-156h88z"/></g></g></g></g></svg>