<svg version="1.2" width="62.97mm" height="84.93mm" viewBox="0 0 6297 8493" preserveAspectRatio="xMidYMid" fill-rule="evenodd" stroke-width="28.222" stroke-linejoin="round" xmlns="http://www.w3.org/2000/svg"><defs class="ClipPathGroup"><clipPath id="a" clipPathUnits="userSpaceOnUse"><rect width="6297" height="8493"/></clipPath></defs><g class="SlideGroup"><g class="Slide" clip-path="url(#a)"><g class="Page"><g class="Graphic"><rect class="BoundingBox" fill="none" width="6297" height="8493"/><path fill="#F0F2F7" d="M3148 29c353 0 692 140 942 390s391 589 391 942v2666c0 353-141 692-391 942s-589 390-942 390-692-140-942-390-391-589-391-942V1361c0-353 141-692 391-942s589-390 942-390zm3109 3998c0 1568-1159 2860-2665 3078v1364h-888V7105C1198 6887 39 5595 39 4027h888c0 589 234 1154 651 1570 416 417 981 651 1570 651s1154-234 1571-651c416-416 650-981 650-1570h888z"/></g></g></g></g></svg>