<svg version="1.2" width="6.61mm" height="6.61mm" viewBox="0 0 661 661" preserveAspectRatio="xMidYMid" fill-rule="evenodd" stroke-width="28.222" stroke-linejoin="round" xmlns="http://www.w3.org/2000/svg"><defs class="ClipPathGroup"><clipPath id="a" clipPathUnits="userSpaceOnUse"><rect width="661" height="661"/></clipPath></defs><g class="SlideGroup"><g class="Slide" clip-path="url(#a)"><g class="Page"><g class="Graphic"><rect class="BoundingBox" fill="none" width="661" height="661"/><path fill="#9BA6BC" d="M541 330c0 10-2 18-7 26-5 9-11 15-19 20-9 5-17 7-27 7-9 0-18-2-26-7s-14-11-19-20c-5-8-7-16-7-26s2-18 7-26c5-9 11-15 19-20s17-7 26-7c10 0 18 2 27 7 8 5 14 11 19 20 5 8 7 16 7 26zm-158 0c0 10-2 18-7 26-5 9-11 15-20 20-8 5-16 7-26 7s-18-2-26-7c-9-5-15-11-20-20-5-8-7-16-7-26s2-18 7-26c5-9 11-15 20-20 8-5 16-7 26-7s18 2 26 7c9 5 15 11 20 20 5 8 7 16 7 26zm-159 0c0 10-2 18-7 26-5 9-11 15-19 20s-17 7-26 7c-10 0-18-2-27-7-8-5-14-11-19-20-5-8-7-16-7-26s2-18 7-26c5-9 11-15 19-20 9-5 17-7 27-7 9 0 18 2 26 7s14 11 19 20c5 8 7 16 7 26z"/></g></g></g></g></svg>