<svg version="1.2" width="9.26mm" height="9.26mm" viewBox="0 0 926 926" preserveAspectRatio="xMidYMid" fill-rule="evenodd" stroke-width="28.222" stroke-linejoin="round" xmlns="http://www.w3.org/2000/svg"><defs class="ClipPathGroup"><clipPath id="a" clipPathUnits="userSpaceOnUse"><rect width="926" height="926"/></clipPath></defs><g class="SlideGroup"><g class="Slide" clip-path="url(#a)"><g class="Page"><g class="Graphic"><rect class="BoundingBox" fill="none" width="926" height="926"/><path fill="#4E94CA" d="M595 639h-88V286h88v353zm-177 0h-88V286h88v353zm45-617c-58 0-116 11-169 34-54 22-102 54-143 95C68 234 22 346 22 462c0 117 46 229 129 312 41 41 89 73 143 95 53 23 111 34 169 34 116 0 228-46 311-129s129-195 129-312c0-57-11-115-34-168-22-54-54-102-95-143s-89-73-143-95c-53-23-111-34-168-34z"/></g></g></g></g></svg>