<svg version="1.2" width="6.61mm" height="6.61mm" viewBox="0 0 661 661" preserveAspectRatio="xMidYMid" fill-rule="evenodd" stroke-width="28.222" stroke-linejoin="round" xmlns="http://www.w3.org/2000/svg"><defs class="ClipPathGroup"><clipPath id="a" clipPathUnits="userSpaceOnUse"><rect width="661" height="661"/></clipPath></defs><g class="SlideGroup"><g class="Slide" clip-path="url(#a)"><g class="Page"><g class="Graphic"><rect class="BoundingBox" fill="none" width="661" height="661"/><path fill="#FFF" d="M161 160h63l43-41h126l43 41h63c11 0 22 4 30 12s12 18 12 29v246c0 11-4 22-12 29-8 8-19 12-30 12H161c-11 0-22-4-30-12-8-7-12-18-12-29V201c0-11 4-21 12-29s19-12 30-12zm169 61c-28 0-55 11-75 31-19 19-31 45-31 72s12 53 31 73c20 19 47 30 75 30s55-11 75-30c19-20 31-46 31-73s-12-53-31-72c-20-20-47-31-75-31zm0 42c17 0 33 6 45 18 12 11 18 27 18 43s-6 32-18 44c-12 11-28 18-45 18s-33-7-45-18c-12-12-18-28-18-44s6-32 18-43c12-12 28-18 45-18z"/></g></g></g></g></svg>