<svg version="1.2" width="41.008" height="41.008" viewBox="0 0 1085 1085" preserveAspectRatio="xMidYMid" fill-rule="evenodd" stroke-width="28.222" stroke-linejoin="round" xmlns="http://www.w3.org/2000/svg"><defs class="ClipPathGroup"><clipPath id="a" clipPathUnits="userSpaceOnUse"><rect width="1085" height="1085"/></clipPath></defs><g class="SlideGroup"><g class="Slide" clip-path="url(#a)"><g class="Page"><g class="Graphic"><rect class="BoundingBox" fill="none" width="1085" height="1085"/><path fill="#4E94CA" d="M436 780V304l318 238-318 238zM542 13c-69 0-138 14-202 40-65 27-123 66-172 115C69 267 13 402 13 542s56 275 155 374c49 49 107 88 172 115 64 26 133 40 202 40 140 0 275-56 374-155s155-234 155-374c0-69-14-138-40-202-27-65-66-123-115-172S809 80 744 53c-64-26-133-40-202-40z"/></g></g></g></g></svg>