<svg version="1.2" width="49.48mm" height="29.9mm" viewBox="0 0 4948 2990" preserveAspectRatio="xMidYMid" fill-rule="evenodd" stroke-width="28.222" stroke-linejoin="round" xmlns="http://www.w3.org/2000/svg"><defs class="ClipPathGroup"><clipPath id="a" clipPathUnits="userSpaceOnUse"><rect width="4948" height="2990"/></clipPath></defs><g class="SlideGroup"><g class="Slide" clip-path="url(#a)"><g class="Page"><g class="Graphic"><rect class="BoundingBox" fill="none" width="4948" height="2990"/><defs><clipPath id="b" clipPathUnits="userSpaceOnUse"><path d="M0 0h4947v2989H0V0z"/></clipPath></defs><g clip-path="url(#b)"><defs><mask id="d"><defs><linearGradient id="c" x1="2473" y1="412" x2="2473" y2="4534" gradientUnits="userSpaceOnUse"><stop offset=".5" stop-color="#191919"/><stop offset=".5" stop-color="#191919"/><stop offset="1" stop-color="#191919"/><stop offset="1" stop-color="#191919"/></linearGradient></defs><path d="M412 412h4123v4122H412V412z" fill="url(#c)"/></mask></defs><g mask="url(#d)"><path fill="#FFF" fill-opacity=".898" stroke="#FFF" stroke-opacity=".898" d="M2061 3401V1546l1237 927-1237 928h0zm413-2989c-271 0-539 54-789 157-250 104-478 255-669 447-387 386-604 911-604 1457 0 547 217 1071 604 1458 191 191 419 343 669 446 250 104 518 157 789 157 546 0 1070-217 1457-603 387-387 604-911 604-1458 0-270-54-538-157-789-104-250-256-477-447-668-191-192-419-343-669-447-250-103-518-157-788-157h0z"/></g></g></g></g></g></g></svg>