<svg version="1.2" width="41.008" height="41.008" viewBox="0 0 1085 1085" preserveAspectRatio="xMidYMid" fill-rule="evenodd" stroke-width="28.222" stroke-linejoin="round" xmlns="http://www.w3.org/2000/svg"><defs class="ClipPathGroup"><clipPath id="a" clipPathUnits="userSpaceOnUse"><rect width="1085" height="1085"/></clipPath></defs><g class="SlideGroup"><g class="Slide" clip-path="url(#a)"><g class="Page"><g class="Graphic"><rect class="BoundingBox" fill="none" width="1085" height="1085"/><path fill="#4E94CA" d="M542 13c69 0 138 14 202 40 65 27 123 66 172 115s88 107 115 172c26 64 40 133 40 202 0 140-56 275-155 374s-234 155-374 155c-69 0-138-14-202-40-65-27-123-66-172-115C69 817 13 682 13 542s56-275 155-374S402 13 542 13zM330 315v177l378 50-378 50v177l529-227-529-227z"/></g></g></g></g></svg>