<svg version="1.2" width="41.008" height="39.987" viewBox="0 0 1085 1058" preserveAspectRatio="xMidYMid" fill-rule="evenodd" stroke-width="28.222" stroke-linejoin="round" xmlns="http://www.w3.org/2000/svg"><defs class="ClipPathGroup"><clipPath id="a" clipPathUnits="userSpaceOnUse"><rect width="1085" height="1058"/></clipPath></defs><g class="SlideGroup"><g class="Slide" clip-path="url(#a)"><g class="Page"><g class="Graphic"><rect class="BoundingBox" fill="none" width="1085" height="1058"/><path fill="#E3E7F1" d="M493 51c18-43 80-43 98 0l106 256c8 19 25 31 45 33l277 22c47 4 66 62 30 93L838 635c-15 13-22 33-17 53l64 270c11 45-38 81-79 57L570 870c-17-10-39-10-56 0l-236 145c-41 24-90-12-79-57l64-270c5-20-2-40-17-53L35 455c-36-31-17-89 30-93l277-22c20-2 37-14 45-33L493 51z"/></g></g></g></g></svg>