<?xml version="1.0" encoding="UTF-8"?>
<!DOCTYPE svg PUBLIC "-//W3C//DTD SVG 1.1//EN" "http://www.w3.org/Graphics/SVG/1.1/DTD/svg11.dtd">
<svg version="1.2" width="21.96mm" height="24.34mm" viewBox="0 0 2196 2434" preserveAspectRatio="xMidYMid" fill-rule="evenodd" stroke-width="28.222" stroke-linejoin="round" xmlns="http://www.w3.org/2000/svg" xmlns:ooo="http://xml.openoffice.org/svg/export" xmlns:xlink="http://www.w3.org/1999/xlink" xmlns:presentation="http://sun.com/xmlns/staroffice/presentation" xmlns:smil="http://www.w3.org/2001/SMIL20/" xmlns:anim="urn:oasis:names:tc:opendocument:xmlns:animation:1.0" xml:space="preserve">
 <defs class="ClipPathGroup">
  <clipPath id="presentation_clip_path" clipPathUnits="userSpaceOnUse">
   <rect x="0" y="0" width="2196" height="2434"/>
  </clipPath>
  <clipPath id="presentation_clip_path_shrink" clipPathUnits="userSpaceOnUse">
   <rect x="2" y="2" width="2192" height="2430"/>
  </clipPath>
 </defs>
 <defs class="TextShapeIndex">
  <g ooo:slide="id1" ooo:id-list="id3"/>
 </defs>
 <defs class="EmbeddedBulletChars">
  <g id="bullet-char-template-57356" transform="scale(0.00048828125,-0.00048828125)">
   <path d="M 580,1141 L 1163,571 580,0 -4,571 580,1141 Z"/>
  </g>
  <g id="bullet-char-template-57354" transform="scale(0.00048828125,-0.00048828125)">
   <path d="M 8,1128 L 1137,1128 1137,0 8,0 8,1128 Z"/>
  </g>
  <g id="bullet-char-template-10146" transform="scale(0.00048828125,-0.00048828125)">
   <path d="M 174,0 L 602,739 174,1481 1456,739 174,0 Z M 1358,739 L 309,1346 659,739 1358,739 Z"/>
  </g>
  <g id="bullet-char-template-10132" transform="scale(0.00048828125,-0.00048828125)">
   <path d="M 2015,739 L 1276,0 717,0 1260,543 174,543 174,936 1260,936 717,1481 1274,1481 2015,739 Z"/>
  </g>
  <g id="bullet-char-template-10007" transform="scale(0.00048828125,-0.00048828125)">
   <path d="M 0,-2 C -7,14 -16,27 -25,37 L 356,567 C 262,823 215,952 215,954 215,979 228,992 255,992 264,992 276,990 289,987 310,991 331,999 354,1012 L 381,999 492,748 772,1049 836,1024 860,1049 C 881,1039 901,1025 922,1006 886,937 835,863 770,784 769,783 710,716 594,584 L 774,223 C 774,196 753,168 711,139 L 727,119 C 717,90 699,76 672,76 641,76 570,178 457,381 L 164,-76 C 142,-110 111,-127 72,-127 30,-127 9,-110 8,-76 1,-67 -2,-52 -2,-32 -2,-23 -1,-13 0,-2 Z"/>
  </g>
  <g id="bullet-char-template-10004" transform="scale(0.00048828125,-0.00048828125)">
   <path d="M 285,-33 C 182,-33 111,30 74,156 52,228 41,333 41,471 41,549 55,616 82,672 116,743 169,778 240,778 293,778 328,747 346,684 L 369,508 C 377,444 397,411 428,410 L 1163,1116 C 1174,1127 1196,1133 1229,1133 1271,1133 1292,1118 1292,1087 L 1292,965 C 1292,929 1282,901 1262,881 L 442,47 C 390,-6 338,-33 285,-33 Z"/>
  </g>
  <g id="bullet-char-template-9679" transform="scale(0.00048828125,-0.00048828125)">
   <path d="M 813,0 C 632,0 489,54 383,161 276,268 223,411 223,592 223,773 276,916 383,1023 489,1130 632,1184 813,1184 992,1184 1136,1130 1245,1023 1353,916 1407,772 1407,592 1407,412 1353,268 1245,161 1136,54 992,0 813,0 Z"/>
  </g>
  <g id="bullet-char-template-8226" transform="scale(0.00048828125,-0.00048828125)">
   <path d="M 346,457 C 273,457 209,483 155,535 101,586 74,649 74,723 74,796 101,859 155,911 209,963 273,989 346,989 419,989 480,963 531,910 582,859 608,796 608,723 608,648 583,586 532,535 482,483 420,457 346,457 Z"/>
  </g>
  <g id="bullet-char-template-8211" transform="scale(0.00048828125,-0.00048828125)">
   <path d="M -4,459 L 1135,459 1135,606 -4,606 -4,459 Z"/>
  </g>
  <g id="bullet-char-template-61548" transform="scale(0.00048828125,-0.00048828125)">
   <path d="M 173,740 C 173,903 231,1043 346,1159 462,1274 601,1332 765,1332 928,1332 1067,1274 1183,1159 1299,1043 1357,903 1357,740 1357,577 1299,437 1183,322 1067,206 928,148 765,148 601,148 462,206 346,322 231,437 173,577 173,740 Z"/>
  </g>
 </defs>
 <defs class="TextEmbeddedBitmaps"/>
 <g>
  <g id="id2" class="Master_Slide">
   <g id="bg-id2" class="Background"/>
   <g id="bo-id2" class="BackgroundObjects"/>
  </g>
 </g>
 <g class="SlideGroup">
  <g>
   <g id="container-id1">
    <g id="id1" class="Slide" clip-path="url(#presentation_clip_path)">
     <g class="Page">
      <g class="Graphic">
       <g id="id3">
        <rect class="BoundingBox" stroke="none" fill="none" x="0" y="0" width="2196" height="2434"/>
        <path fill="rgb(187,221,252)" stroke="none" d="M 2001,781 C 2001,905 1900,1007 1775,1007 1650,1007 1549,905 1549,781 1549,905 1448,1007 1323,1007 1199,1007 1097,905 1097,781 1097,905 996,1007 872,1007 747,1007 646,905 646,781 646,905 545,1007 420,1007 295,1007 194,905 194,781 L 320,292 C 320,292 346,194 438,194 L 1757,194 C 1849,194 1875,292 1875,292 L 2001,781 2001,781 Z M 1911,1116 L 1911,1820 C 1911,1920 1829,2001 1730,2001 L 465,2001 C 366,2001 284,1920 284,1820 L 284,1116 C 326,1133 372,1143 420,1143 506,1143 584,1113 646,1063 708,1113 787,1143 872,1143 957,1143 1036,1113 1097,1063 1160,1113 1238,1143 1323,1143 1409,1143 1488,1113 1549,1063 1611,1113 1690,1143 1775,1143 1823,1143 1869,1133 1911,1116 L 1911,1116 Z"/>
        <path fill="rgb(187,221,252)" stroke="none" d="M 674,1890 C 674,1662 859,1477 1087,1477 L 1108,1477 C 1336,1477 1521,1662 1521,1890 1521,2117 1336,2302 1108,2302 L 1087,2302 C 859,2302 674,2117 674,1890 L 674,1890 Z"/>
        <path fill="rgb(255,255,255)" stroke="none" d="M 1098,2173 C 1127,2173 1150,2149 1150,2120 L 1150,1659 C 1150,1630 1127,1606 1098,1606 1068,1606 1045,1630 1045,1659 L 1045,2120 C 1045,2149 1068,2173 1098,2173 Z"/>
        <path fill="rgb(255,255,255)" stroke="none" d="M 1098,1941 L 1337,1941 C 1365,1941 1388,1918 1388,1890 1388,1861 1365,1838 1337,1838 L 858,1838 C 830,1838 807,1861 807,1890 807,1918 830,1941 858,1941 L 1098,1941 Z"/>
        <path fill="rgb(255,255,255)" stroke="none" d="M 1108,1583 C 1278,1583 1415,1720 1415,1890 1415,2059 1278,2196 1108,2196 L 1087,2196 C 917,2196 780,2059 780,1890 780,1720 917,1583 1087,1583 L 1108,1583 Z M 1087,1371 C 801,1371 569,1603 569,1890 569,2176 801,2408 1087,2408 L 1108,2408 C 1394,2408 1626,2176 1626,1890 1626,1603 1394,1371 1108,1371 L 1087,1371 Z"/>
       </g>
      </g>
     </g>
    </g>
   </g>
  </g>
 </g>
</svg>