<?xml version="1.0" encoding="UTF-8"?>
<!DOCTYPE svg PUBLIC "-//W3C//DTD SVG 1.1//EN" "http://www.w3.org/Graphics/SVG/1.1/DTD/svg11.dtd">
<svg version="1.2" width="53.71mm" height="12.96mm" viewBox="0 0 5371 1296" preserveAspectRatio="xMidYMid" fill-rule="evenodd" stroke-width="28.222" stroke-linejoin="round" xmlns="http://www.w3.org/2000/svg" xmlns:ooo="http://xml.openoffice.org/svg/export" xmlns:xlink="http://www.w3.org/1999/xlink" xmlns:presentation="http://sun.com/xmlns/staroffice/presentation" xmlns:smil="http://www.w3.org/2001/SMIL20/" xmlns:anim="urn:oasis:names:tc:opendocument:xmlns:animation:1.0" xml:space="preserve">
 <defs class="ClipPathGroup">
  <clipPath id="presentation_clip_path" clipPathUnits="userSpaceOnUse">
   <rect x="0" y="0" width="5371" height="1296"/>
  </clipPath>
  <clipPath id="presentation_clip_path_shrink" clipPathUnits="userSpaceOnUse">
   <rect x="5" y="1" width="5361" height="1294"/>
  </clipPath>
 </defs>
 <defs class="TextShapeIndex">
  <g ooo:slide="id1" ooo:id-list="id3"/>
 </defs>
 <defs class="EmbeddedBulletChars">
  <g id="bullet-char-template-57356" transform="scale(0.00048828125,-0.00048828125)">
   <path d="M 580,1141 L 1163,571 580,0 -4,571 580,1141 Z"/>
  </g>
  <g id="bullet-char-template-57354" transform="scale(0.00048828125,-0.00048828125)">
   <path d="M 8,1128 L 1137,1128 1137,0 8,0 8,1128 Z"/>
  </g>
  <g id="bullet-char-template-10146" transform="scale(0.00048828125,-0.00048828125)">
   <path d="M 174,0 L 602,739 174,1481 1456,739 174,0 Z M 1358,739 L 309,1346 659,739 1358,739 Z"/>
  </g>
  <g id="bullet-char-template-10132" transform="scale(0.00048828125,-0.00048828125)">
   <path d="M 2015,739 L 1276,0 717,0 1260,543 174,543 174,936 1260,936 717,1481 1274,1481 2015,739 Z"/>
  </g>
  <g id="bullet-char-template-10007" transform="scale(0.00048828125,-0.00048828125)">
   <path d="M 0,-2 C -7,14 -16,27 -25,37 L 356,567 C 262,823 215,952 215,954 215,979 228,992 255,992 264,992 276,990 289,987 310,991 331,999 354,1012 L 381,999 492,748 772,1049 836,1024 860,1049 C 881,1039 901,1025 922,1006 886,937 835,863 770,784 769,783 710,716 594,584 L 774,223 C 774,196 753,168 711,139 L 727,119 C 717,90 699,76 672,76 641,76 570,178 457,381 L 164,-76 C 142,-110 111,-127 72,-127 30,-127 9,-110 8,-76 1,-67 -2,-52 -2,-32 -2,-23 -1,-13 0,-2 Z"/>
  </g>
  <g id="bullet-char-template-10004" transform="scale(0.00048828125,-0.00048828125)">
   <path d="M 285,-33 C 182,-33 111,30 74,156 52,228 41,333 41,471 41,549 55,616 82,672 116,743 169,778 240,778 293,778 328,747 346,684 L 369,508 C 377,444 397,411 428,410 L 1163,1116 C 1174,1127 1196,1133 1229,1133 1271,1133 1292,1118 1292,1087 L 1292,965 C 1292,929 1282,901 1262,881 L 442,47 C 390,-6 338,-33 285,-33 Z"/>
  </g>
  <g id="bullet-char-template-9679" transform="scale(0.00048828125,-0.00048828125)">
   <path d="M 813,0 C 632,0 489,54 383,161 276,268 223,411 223,592 223,773 276,916 383,1023 489,1130 632,1184 813,1184 992,1184 1136,1130 1245,1023 1353,916 1407,772 1407,592 1407,412 1353,268 1245,161 1136,54 992,0 813,0 Z"/>
  </g>
  <g id="bullet-char-template-8226" transform="scale(0.00048828125,-0.00048828125)">
   <path d="M 346,457 C 273,457 209,483 155,535 101,586 74,649 74,723 74,796 101,859 155,911 209,963 273,989 346,989 419,989 480,963 531,910 582,859 608,796 608,723 608,648 583,586 532,535 482,483 420,457 346,457 Z"/>
  </g>
  <g id="bullet-char-template-8211" transform="scale(0.00048828125,-0.00048828125)">
   <path d="M -4,459 L 1135,459 1135,606 -4,606 -4,459 Z"/>
  </g>
  <g id="bullet-char-template-61548" transform="scale(0.00048828125,-0.00048828125)">
   <path d="M 173,740 C 173,903 231,1043 346,1159 462,1274 601,1332 765,1332 928,1332 1067,1274 1183,1159 1299,1043 1357,903 1357,740 1357,577 1299,437 1183,322 1067,206 928,148 765,148 601,148 462,206 346,322 231,437 173,577 173,740 Z"/>
  </g>
 </defs>
 <defs class="TextEmbeddedBitmaps"/>
 <g>
  <g id="id2" class="Master_Slide">
   <g id="bg-id2" class="Background"/>
   <g id="bo-id2" class="BackgroundObjects"/>
  </g>
 </g>
 <g class="SlideGroup">
  <g>
   <g id="container-id1">
    <g id="id1" class="Slide" clip-path="url(#presentation_clip_path)">
     <g class="Page">
      <g class="Graphic">
       <g id="id3">
        <rect class="BoundingBox" stroke="none" fill="none" x="0" y="0" width="5371" height="1296"/>
        <path fill="rgb(49,135,214)" stroke="none" d="M 2028,226 L 1667,584 C 1667,584 1360,243 1182,184 1044,138 909,166 861,255 788,392 921,430 1077,474 1241,520 1429,573 1435,754 1440,911 1365,1186 1027,1268 L 1943,1268 C 1990,1268 2028,1230 2028,1183 L 2028,226 2028,226 Z M 13,1047 L 361,699 C 372,709 384,721 398,734 520,852 742,1067 911,1034 1147,988 1138,833 1075,781 1062,770 1024,761 975,748 781,700 402,606 611,195 660,109 723,51 782,13 L 98,13 C 51,13 13,51 13,98 L 13,1047 13,1047 Z"/>
        <path fill="rgb(49,135,214)" stroke="none" d="M 2561,637 C 2518,637 2481,627 2451,607 2421,587 2399,560 2387,526 L 2451,488 C 2469,539 2507,564 2563,564 2591,564 2612,559 2626,548 2640,537 2647,523 2647,505 2647,486 2640,473 2625,463 2609,453 2583,442 2545,431 2523,424 2506,418 2492,413 2479,407 2465,399 2450,389 2435,379 2424,366 2417,351 2410,336 2406,319 2406,299 2406,258 2420,227 2449,204 2477,180 2511,168 2551,168 2587,168 2619,177 2646,195 2673,212 2694,237 2708,268 L 2646,304 C 2627,262 2595,240 2551,240 2530,240 2512,246 2500,256 2487,266 2480,279 2480,297 2480,313 2487,327 2500,337 2513,346 2537,356 2571,367 2588,372 2601,377 2608,380 2617,382 2628,387 2642,393 2657,399 2667,405 2675,411 2682,417 2690,424 2698,433 2707,442 2713,453 2716,464 2719,476 2721,489 2721,504 2721,545 2706,577 2677,601 2647,625 2609,637 2561,637 L 2561,637 Z"/>
        <path fill="rgb(49,135,214)" stroke="none" d="M 3133,297 C 3169,297 3199,309 3221,333 3243,356 3255,388 3255,428 L 3255,628 3185,628 3185,433 C 3185,410 3179,393 3168,381 3157,369 3142,362 3122,362 3101,362 3084,369 3071,384 3059,398 3052,419 3052,448 L 3052,628 2983,628 2983,433 C 2983,410 2977,393 2967,381 2956,369 2941,362 2922,362 2901,362 2884,370 2871,384 2857,399 2851,420 2851,448 L 2851,628 2781,628 2781,306 2851,306 2851,344 C 2871,313 2902,297 2943,297 2984,297 3015,314 3034,348 3056,314 3089,297 3133,297 L 3133,297 Z"/>
        <path fill="rgb(49,135,214)" stroke="none" d="M 3584,306 L 3654,306 3654,628 3584,628 3584,582 C 3558,618 3520,637 3471,637 3427,637 3389,620 3358,588 3327,554 3311,514 3311,467 3311,419 3327,379 3358,346 3389,314 3427,297 3471,297 3520,297 3558,315 3584,351 L 3584,306 3584,306 Z M 3410,541 C 3429,560 3453,570 3482,570 3512,570 3536,560 3555,541 3574,521 3584,497 3584,467 3584,437 3574,413 3555,393 3536,374 3512,364 3482,364 3453,364 3429,374 3410,393 3390,413 3381,437 3381,467 3381,497 3390,521 3410,541 L 3410,541 Z"/>
        <path fill="rgb(49,135,214)" stroke="none" d="M 3804,360 C 3822,320 3855,300 3904,300 L 3904,375 C 3877,374 3854,380 3834,395 3814,409 3804,433 3804,466 L 3804,628 3735,628 3735,306 3804,306 3804,360 3804,360 Z"/>
        <path fill="rgb(49,135,214)" stroke="none" d="M 4143,373 L 4063,373 4063,528 C 4063,541 4066,551 4072,557 4078,562 4087,565 4098,566 4110,567 4125,567 4143,566 L 4143,628 C 4090,635 4051,630 4028,615 4005,599 3993,570 3993,528 L 3993,373 3934,373 3934,306 3993,306 3993,236 4063,215 4063,306 4143,306 4143,373 4143,373 Z"/>
        <path fill="rgb(49,135,214)" stroke="none" d="M 2675,892 L 2485,892 2485,1018 2669,1018 2669,1089 2485,1089 2485,1273 2411,1273 2411,821 2675,821 2675,892 2675,892 Z"/>
        <path fill="rgb(49,135,214)" stroke="none" d="M 2795,1141 C 2800,1165 2812,1184 2830,1198 2849,1211 2871,1217 2898,1217 2935,1217 2963,1204 2981,1177 L 3038,1211 C 3007,1258 2960,1281 2897,1281 2845,1281 2803,1265 2770,1233 2738,1201 2722,1160 2722,1111 2722,1063 2738,1023 2770,991 2802,958 2842,942 2892,942 2939,942 2978,958 3008,991 3039,1024 3054,1065 3054,1112 3054,1119 3053,1129 3051,1141 L 2795,1141 2795,1141 Z M 2794,1084 L 2984,1084 C 2979,1058 2968,1038 2951,1025 2934,1011 2914,1005 2892,1005 2866,1005 2844,1012 2827,1026 2810,1040 2799,1060 2794,1084 L 2794,1084 Z"/>
        <path fill="rgb(49,135,214)" stroke="none" d="M 3168,1141 C 3173,1165 3185,1184 3203,1198 3222,1211 3244,1217 3271,1217 3308,1217 3336,1204 3354,1177 L 3411,1211 C 3380,1258 3333,1281 3270,1281 3218,1281 3176,1265 3144,1233 3111,1201 3095,1160 3095,1111 3095,1063 3111,1023 3143,991 3175,958 3215,942 3265,942 3312,942 3351,958 3381,991 3412,1024 3427,1065 3427,1112 3427,1119 3426,1129 3424,1141 L 3168,1141 3168,1141 Z M 3167,1084 L 3357,1084 C 3352,1058 3341,1038 3324,1025 3307,1011 3287,1005 3265,1005 3239,1005 3217,1012 3200,1026 3183,1040 3172,1060 3167,1084 L 3167,1084 Z"/>
        <path fill="rgb(49,135,214)" stroke="none" d="M 3741,821 L 3811,821 3811,1273 3741,1273 3741,1226 C 3715,1263 3678,1281 3629,1281 3584,1281 3547,1265 3515,1232 3484,1199 3468,1159 3468,1111 3468,1064 3484,1023 3515,991 3547,958 3584,942 3629,942 3678,942 3715,960 3741,996 L 3741,821 3741,821 Z M 3567,1185 C 3586,1205 3610,1215 3640,1215 3669,1215 3693,1205 3712,1185 3732,1166 3741,1141 3741,1111 3741,1082 3732,1057 3712,1038 3693,1018 3669,1008 3640,1008 3610,1008 3586,1018 3567,1038 3547,1057 3538,1082 3538,1111 3538,1141 3547,1166 3567,1185 L 3567,1185 Z"/>
        <path fill="rgb(49,135,214)" stroke="none" d="M 4074,942 C 4119,942 4156,958 4188,991 4219,1023 4235,1064 4235,1111 4235,1159 4219,1199 4188,1232 4156,1265 4119,1281 4074,1281 4025,1281 3988,1263 3962,1226 L 3962,1273 3892,1273 3892,821 3962,821 3962,996 C 3988,960 4025,942 4074,942 L 4074,942 Z M 3991,1185 C 4010,1205 4034,1215 4063,1215 4093,1215 4117,1205 4136,1185 4156,1166 4165,1141 4165,1111 4165,1082 4156,1057 4136,1038 4117,1018 4093,1008 4063,1008 4034,1008 4010,1018 3991,1038 3971,1057 3962,1082 3962,1111 3962,1141 3971,1166 3991,1185 L 3991,1185 Z"/>
        <path fill="rgb(49,135,214)" stroke="none" d="M 4553,950 L 4622,950 4622,1273 4553,1273 4553,1226 C 4527,1263 4489,1281 4440,1281 4396,1281 4358,1265 4327,1232 4295,1199 4280,1159 4280,1111 4280,1064 4295,1023 4327,991 4358,958 4396,942 4440,942 4489,942 4527,960 4553,996 L 4553,950 4553,950 Z M 4378,1185 C 4398,1205 4422,1215 4451,1215 4480,1215 4505,1205 4524,1185 4543,1166 4553,1141 4553,1111 4553,1082 4543,1057 4524,1038 4505,1018 4480,1008 4451,1008 4422,1008 4398,1018 4378,1038 4359,1057 4349,1082 4349,1111 4349,1141 4359,1166 4378,1185 L 4378,1185 Z"/>
        <path fill="rgb(49,135,214)" stroke="none" d="M 4856,1281 C 4807,1281 4766,1265 4734,1232 4702,1199 4686,1159 4686,1111 4686,1063 4702,1023 4734,991 4766,958 4807,942 4856,942 4887,942 4915,949 4941,964 4967,979 4986,999 4999,1025 L 4939,1060 C 4932,1044 4921,1032 4906,1024 4891,1014 4874,1010 4855,1010 4827,1010 4803,1020 4783,1039 4765,1058 4755,1082 4755,1111 4755,1140 4765,1164 4783,1184 4803,1203 4827,1213 4855,1213 4874,1213 4891,1208 4906,1199 4921,1190 4933,1178 4941,1163 L 5001,1197 C 4987,1223 4967,1243 4941,1258 4915,1273 4887,1281 4856,1281 L 4856,1281 Z"/>
        <path fill="rgb(49,135,214)" stroke="none" d="M 5336,1273 L 5252,1273 5120,1124 5120,1273 5051,1273 5051,821 5120,821 5120,1093 5245,950 5330,950 5189,1108 5336,1273 5336,1273 Z"/>
       </g>
      </g>
     </g>
    </g>
   </g>
  </g>
 </g>
</svg>