<svg version="1.2" width="80.995" height="80.995" viewBox="0 0 2143 2143" preserveAspectRatio="xMidYMid" fill-rule="evenodd" stroke-width="28.222" stroke-linejoin="round" xmlns="http://www.w3.org/2000/svg"><defs class="ClipPathGroup"><clipPath id="a" clipPathUnits="userSpaceOnUse"><rect width="2143" height="2143"/></clipPath></defs><g class="SlideGroup"><g class="Slide" clip-path="url(#a)"><g class="Page"><g class="Graphic"><rect class="BoundingBox" fill="none" width="2143" height="2143"/><path fill="#BBDDFC" d="M1952 762c0 121-98 221-220 221s-220-100-220-221c0 121-99 221-221 221-121 0-220-100-220-221 0 121-99 221-220 221-122 0-221-100-221-221 0 121-98 221-220 221S190 883 190 762l122-477s26-95 116-95h1286c90 0 116 95 116 95l122 477zm-88 327v687c0 97-79 176-176 176H454c-97 0-176-79-176-176v-687c40 16 85 26 132 26 84 0 160-29 220-77 61 48 138 77 221 77s160-29 220-77c61 48 138 77 220 77 84 0 161-29 221-77 60 48 137 77 220 77 47 0 92-10 132-26z"/></g></g></g></g></svg>