<svg version="1.2" width="6.61mm" height="6.61mm" viewBox="0 0 661 661" preserveAspectRatio="xMidYMid" fill-rule="evenodd" stroke-width="28.222" stroke-linejoin="round" xmlns="http://www.w3.org/2000/svg"><defs class="ClipPathGroup"><clipPath id="a" clipPathUnits="userSpaceOnUse"><rect width="661" height="661"/></clipPath></defs><g class="SlideGroup"><g class="Slide" clip-path="url(#a)"><g class="Page"><g class="Graphic"><rect class="BoundingBox" fill="none" width="661" height="661"/><path fill="#9BA6BC" d="M354 147V92c120 12 214 114 214 237 0 35-8 68-21 97l-46-26c9-22 14-45 14-70 0-94-70-172-161-183zm-48 0V92C186 104 92 206 92 329c0 64 25 124 70 169 22 22 48 39 77 51s60 19 91 19c78 0 148-39 191-98l-45-27c-34 44-87 72-146 72-102 0-185-83-185-185 0-94 70-172 161-183z"/></g></g></g></g></svg>