<svg version="1.2" width="80.995" height="91.011" viewBox="0 0 2143 2408" preserveAspectRatio="xMidYMid" fill-rule="evenodd" stroke-width="28.222" stroke-linejoin="round" xmlns="http://www.w3.org/2000/svg"><defs class="ClipPathGroup"><clipPath id="a" clipPathUnits="userSpaceOnUse"><rect width="2143" height="2408"/></clipPath></defs><g class="SlideGroup"><g class="Slide" clip-path="url(#a)"><g class="Page"><g class="Graphic"><rect class="BoundingBox" fill="none" width="2143" height="2408"/><path fill="#E3E7F1" d="M278 983h176v176H278V983zm705-529h176v353H983V454zM807 983h352v353H983v-177H807V983zm528 0h177v176h176V983h176v176h-176v177h176v352h-176v177h-176v-177h-353v177H983v-353h352v-176h177v-177h-177V983zm353 705v-352h-176v352h176zM1335 278h529v529h-529V278zm177 176v176h176V454h-176zM278 278h529v529H278V278zm176 176v176h176V454H454zm-176 882h529v529H278v-529zm176 176v176h176v-176H454z"/><path fill="#E3E7F1" d="M648 1854c0-228 184-412 412-412h22c228 0 412 184 412 412s-184 412-412 412h-22c-228 0-412-184-412-412z"/><path fill="#FFF" d="M1071 2137c29 0 53-23 53-52v-462c0-29-24-53-53-53s-53 24-53 53v462c0 29 24 52 53 52z"/><path fill="#FFF" d="M1071 1905h239c29 0 52-23 52-51 0-29-23-52-52-52H832c-29 0-52 23-52 52 0 28 23 51 52 51h239z"/><path fill="#FFF" d="M1082 1547c169 0 306 138 306 307s-137 306-306 306h-22c-169 0-306-137-306-306s137-307 306-307h22zm-22-211c-286 0-518 232-518 518s232 518 518 518h22c286 0 518-232 518-518s-232-518-518-518h-22z"/></g></g></g></g></svg>