<?xml version="1.0" encoding="UTF-8"?><!DOCTYPE svg PUBLIC "-//W3C//DTD SVG 1.1//EN" "http://www.w3.org/Graphics/SVG/1.1/DTD/svg11.dtd"><svg xmlns="http://www.w3.org/2000/svg" xmlns:xlink="http://www.w3.org/1999/xlink"><defs><clipPath id="copy-a" clipPathUnits="userSpaceOnUse"><path d="M0 0h661v661H0z"/></clipPath><clipPath id="dropdown-exit-a" clipPathUnits="userSpaceOnUse"><path d="M0 0h661v661H0z"/></clipPath><clipPath id="dropdown-settings-a" clipPathUnits="userSpaceOnUse"><path d="M0 0h661v661H0z"/></clipPath><clipPath id="dropdown-tariff-a" clipPathUnits="userSpaceOnUse"><path d="M0 0h661v661H0z"/></clipPath><clipPath id="edit-a" clipPathUnits="userSpaceOnUse"><path d="M0 0h503v503H0z"/></clipPath><clipPath id="edit-b" clipPathUnits="userSpaceOnUse"><path d="M0 0h502v502H0V0z"/></clipPath><clipPath id="link-a" clipPathUnits="userSpaceOnUse"><path d="M0 0h661v661H0z"/></clipPath><clipPath id="template-a" clipPathUnits="userSpaceOnUse"><path d="M0 0h661v661H0z"/></clipPath><clipPath id="trash-a" clipPathUnits="userSpaceOnUse"><path d="M0 0h661v661H0z"/></clipPath></defs><symbol id="copy" viewBox="0 0 661 661" preserveAspectRatio="xMidYMid"><g class="SlideGroup"><g class="Slide" clip-path="url(#copy-a)"><g class="Page"><g class="Graphic"><path class="BoundingBox" fill="none" d="M0 0h661v661H0z"/><path fill="#E3E7F1" d="M515 568H224V198h291v370zm0-423H224c-14 0-27 6-37 16s-15 23-15 37v370c0 14 5 27 15 37s23 15 37 15h291c14 0 27-5 37-15s16-23 16-37V198c0-14-6-27-16-37s-23-16-37-16zM436 40H119c-14 0-28 5-38 15-9 10-15 23-15 37v370h53V92h317V40z"/></g></g></g></g></symbol><symbol id="dropdown-exit" viewBox="0 0 661 661" preserveAspectRatio="xMidYMid"><g class="SlideGroup"><g class="Slide" clip-path="url(#dropdown-exit-a)"><g class="Page"><g class="Graphic"><path class="BoundingBox" fill="none" d="M0 0h661v661H0z"/><path fill="#9BA6BC" d="M224 462v-79h185V277H224v-79L92 330l132 132zm53-396h238c14 0 27 6 37 15 10 10 16 24 16 38v422c0 14-6 28-16 38-10 9-23 15-37 15H277c-14 0-27-6-37-15-10-10-16-24-16-38v-53h53v53h238V119H277v53h-53v-53c0-14 6-28 16-38 10-9 23-15 37-15z"/></g></g></g></g></symbol><symbol id="dropdown-settings" viewBox="0 0 661 661" preserveAspectRatio="xMidYMid"><g class="SlideGroup"><g class="Slide" clip-path="url(#dropdown-settings-a)"><g class="Page"><g class="Graphic"><path class="BoundingBox" fill="none" d="M0 0h661v661H0z"/><path fill="#9BA6BC" d="M92 462v53h159v-53H92zm0-317v53h264v-53H92zm264 423v-53h212v-53H356v-53h-52v159h52zM198 251v53H92v52h106v53h53V251h-53zm370 105v-52H304v52h264zM409 251h53v-53h106v-53H462V92h-53v159z"/></g></g></g></g></symbol><symbol id="dropdown-tariff" viewBox="0 0 661 661" preserveAspectRatio="xMidYMid"><g class="SlideGroup"><g class="Slide" clip-path="url(#dropdown-tariff-a)"><g class="Page"><g class="Graphic"><path class="BoundingBox" fill="none" d="M0 0h661v661H0z"/><path fill="#9BA6BC" d="M354 147V92c120 12 214 114 214 237 0 35-8 68-21 97l-46-26c9-22 14-45 14-70 0-94-70-172-161-183zm-48 0V92C186 104 92 206 92 329c0 64 25 124 70 169 22 22 48 39 77 51s60 19 91 19c78 0 148-39 191-98l-45-27c-34 44-87 72-146 72-102 0-185-83-185-185 0-94 70-172 161-183z"/></g></g></g></g></symbol><symbol id="edit" viewBox="0 0 503 503" preserveAspectRatio="xMidYMid"><g class="SlideGroup"><g class="Slide" clip-path="url(#edit-a)"><g class="Page"><g class="Graphic"><path class="BoundingBox" fill="none" d="M0 0h503v503H0z"/><g clip-path="url(#edit-b)"><path fill="#E3E7F1" d="M468 133c10-10 10-27 0-37l-62-62c-10-10-27-10-37 0l-49 48 99 100 49-49zM0 403v99h99l292-292-99-100L0 403z"/></g></g></g></g></g></symbol><symbol id="link" viewBox="0 0 661 661" preserveAspectRatio="xMidYMid"><g class="SlideGroup"><g class="Slide" clip-path="url(#link-a)"><g class="Page"><g class="Graphic"><path class="BoundingBox" fill="none" d="M0 0h661v661H0z"/><path fill="#E3E7F1" d="M293 367c11 11 11 27 0 38-11 10-27 10-38 0-51-52-51-135 0-187l94-93c51-52 135-52 186 0 52 51 52 135 0 186l-39 40c0-22-3-44-11-64l13-13c31-31 31-81 0-112s-81-31-112 0l-93 93c-31 31-31 81 0 112zm74-112c11-10 27-10 38 0 51 52 51 135 0 187l-94 93c-51 52-135 52-186 0-52-51-52-135 0-186l39-40c0 22 3 44 11 65l-13 12c-31 31-31 81 0 112s81 31 112 0l93-93c31-31 31-81 0-112-11-11-11-27 0-38z"/></g></g></g></g></symbol><symbol id="template" viewBox="0 0 661 661" preserveAspectRatio="xMidYMid"><g class="SlideGroup"><g class="Slide" clip-path="url(#template-a)"><g class="Page"><g class="Graphic"><path class="BoundingBox" fill="none" d="M0 0h661v661H0z"/><path fill="#E3E7F1" d="M488 396c30 0 56 12 75 31l31-31v106H488l47-47c-12-12-28-19-47-19-36 0-66 29-66 66 0 36 30 66 66 66 22 0 41-11 53-27h45c-15 39-53 66-98 66-58 0-105-47-105-105 0-59 47-106 105-106zM383 66l158 158v110c-13-2-26-4-39-4h-14v-79H356V119H172v422h162c5 19 13 37 22 53H172c-29 0-53-24-53-53V119c0-29 24-53 53-53h211z"/></g></g></g></g></symbol><symbol id="trash" viewBox="0 0 661 661" preserveAspectRatio="xMidYMid"><g class="SlideGroup"><g class="Slide" clip-path="url(#trash-a)"><g class="Page"><g class="Graphic"><path class="BoundingBox" fill="none" d="M0 0h661v661H0z"/><path fill="#E3E7F1" d="M251 92v27H119v53h26v343c0 14 6 27 16 37s23 16 37 16h264c14 0 27-6 37-16s16-23 16-37V172h26v-53H409V92H251zm-53 80h264v343H198V172zm53 52v238h53V224h-53zm105 0v238h53V224h-53z"/></g></g></g></g></symbol></svg>